<?xml version="1.0" encoding="UTF-8"?>
<svg
  aria-describedby="desc"
  aria-labelledby="title"
  role="img"
  viewBox="0 0 238.22 55.03"
  xmlns="http://www.w3.org/2000/svg"
  xmlns:xlink="http://www.w3.org/1999/xlink"
>
  <title>Amazon</title>
  <desc>A color styled icon from Orion Icon Library.</desc>
  <g transform="translate(93, 23) scale(0.21)">
    <path
      d="M181.7 32.852V11.819C181.7 8.214 170.2 0 123.694 0 77.09-.1 51.388 7.713 51.388 14.824l40.5.9s8.3-7.111 27.8-7.111 19.1 4.407 19.1 5.308a45.384 45.384 0 0 0-.1 4.707c-27.9.2-97.208 2.2-97.208 16.826 0 15.624 79.706 16.325 106.208 6.21a19.709 19.709 0 0 0 3.9 1.2c10.4 2.5 23.6 5.508 23.6 5.508l32.1-8.012S181.7 36.758 181.7 32.852zm-48-1.8c0 11.518-48 9.715-48 2.5 0-6.71 28.8-8.113 48-8.213z"
      data-name="layer2"
      fill="#171715"
    />
    <path
      d="M215.4 52.682c-105.408 12.519-170.714 2-212.217-4.307-.6-.4-7.8.1-3.8 1.2C19.885 53.784 65.289 64 125.194 64S220 55.787 224.1 54.385c4.2-1.402 1.4-2.203-2.7-1.703z"
      data-name="layer1"
      fill="#ffac35"
    />
    <path
      d="M235.8 48.576c-2.7-.9-17.3-1.1-26.6-.8s-22.7 1.7-21.4 2.5c.1.3 2.5.2 8 0 6.6-.2 23.9-.7 27.9.5 3.9 1.2-5.4 6.911-7.8 7.812s.8 1.2 3.9.5a44.061 44.061 0 0 0 12-4.507c4-2.099 6.5-5.304 4-6.005z"
      data-name="layer1"
      fill="#ffac35"
    />
  </g>
</svg>
